<svg width="24" height="24" viewBox="0 0 24 24" fill="none" xmlns="http://www.w3.org/2000/svg">
<path d="M12.0005 2.40039C8.03076 2.40039 4.80078 5.57144 4.80078 9.46913C4.80078 10.4858 5.01274 11.4565 5.43044 12.3545C7.23057 16.2217 10.6819 20.3047 11.6971 21.4638C11.7731 21.5505 11.884 21.6004 12.0007 21.6004C12.1174 21.6004 12.2283 21.5505 12.3043 21.4638C13.3191 20.3049 16.7704 16.2221 18.5711 12.3545C18.989 11.4565 19.2008 10.4858 19.2008 9.46913C19.2004 5.57144 15.9704 2.40039 12.0005 2.40039ZM12.0005 13.1407C9.93836 13.1407 8.26053 11.4934 8.26053 9.46893C8.26053 7.44424 9.93836 5.79702 12.0005 5.79702C14.0626 5.79702 15.7404 7.44424 15.7404 9.46893C15.7406 11.4934 14.0628 13.1407 12.0005 13.1407Z" fill="#D2D2D3"/>
</svg>